<?xml version="1.0" standalone="no"?>
<!DOCTYPE svg PUBLIC "-//W3C//DTD SVG 1.1//EN" "http://www.w3.org/Graphics/SVG/1.1/DTD/svg11.dtd">
<!--Generator: Xara Designer (www.xara.com), SVG filter version: 6.2.0.0-->
<svg stroke-width="0.501" stroke-linejoin="bevel" fill-rule="evenodd" xmlns:xlink="http://www.w3.org/1999/xlink" xmlns="http://www.w3.org/2000/svg" version="1.1" overflow="visible" width="841.9pt" height="297.6pt" viewBox="0 0 841.892 297.639">
 <defs>
	</defs>
 <g id="Document" fill="none" stroke="black" font-family="'Times New Roman'" font-size="10" transform="scale(1,-1)">
  <g id="Spread" transform="translate(0,-297.6)">
   <g id="Layer 1">
    <g id="Group" fill-rule="nonzero" stroke-linejoin="miter" stroke="none" stroke-width="0.933">
     <path d="M 412.3 107.7 L 412.3 171.5 C 412.3 172.4 411.8 172.9 410.8 172.9 L 345.2 172.9 C 344.2 172.9 343.7 172.4 343.7 171.5 L 343.7 107.7 C 343.7 106.7 344.2 106.2 345.2 106.2 L 410.8 106.2 C 411.8 106.2 412.3 106.7 412.3 107.7 Z M 410.8 200.4 C 418.8 200.4 425.6 197.6 431.3 191.9 C 436.9 186.2 439.8 179.4 439.8 171.5 L 439.8 107.7 C 439.8 99.7 436.9 92.9 431.3 87.3 C 425.6 81.6 418.8 78.8 410.8 78.8 L 343.7 78.8 L 343.7 30.5 L 316.2 30.5 L 316.2 200.4 L 410.8 200.4 Z" fill="#000000" marker-start="none" marker-end="none"/>
     <path d="M 561.6 106.2 L 561.6 125.7 L 493 125.7 L 493 107.7 C 493 106.7 493.5 106.2 494.5 106.2 L 561.6 106.2 Z M 560.1 200.4 C 568.1 200.4 574.9 197.6 580.6 191.9 C 586.2 186.2 589.1 179.4 589.1 171.5 L 589.1 78.8 L 494.5 78.8 C 486.5 78.8 479.7 81.6 474 87.3 C 468.4 92.9 465.6 99.7 465.6 107.7 L 465.6 153.4 L 561.6 153.4 L 561.6 171.5 C 561.6 172.4 561.1 172.9 560.1 172.9 L 465.6 172.9 L 465.6 200.4 L 560.1 200.4 Z" fill="#000000" marker-start="none" marker-end="none"/>
     <path d="M 650.5 200.4 L 718 200.4 L 718 172.9 L 650.5 172.9 C 649.5 172.9 649 172.4 649 171.5 L 649 78.8 L 621.5 78.8 L 621.5 171.5 C 621.5 179.4 624.3 186.2 630 191.9 C 635.7 197.6 642.5 200.4 650.5 200.4 Z" fill="#000000" marker-start="none" marker-end="none"/>
     <path d="M 836.8 106.2 L 754 106.2 C 753 106.2 752.5 106.7 752.5 107.7 L 752.5 171.5 C 752.5 172.4 753 172.9 754 172.9 L 836.8 172.9 L 836.8 200.4 L 754 200.4 C 746 200.4 739.2 197.6 733.5 191.9 C 727.9 186.2 725 179.4 725 171.5 L 725 107.7 C 725 99.7 727.9 92.9 733.5 87.3 C 739.2 81.6 746 78.8 754 78.8 L 836.8 78.8 L 836.8 106.2 Z" fill="#000000" marker-start="none" marker-end="none"/>
     <path d="M 206.8 173.7 C 206.5 181.1 203.8 187.4 198.5 192.7 C 193 198.3 186.2 201.2 178.2 201.2 L 113 201.2 C 105.1 201.2 98.3 198.3 92.7 192.7 C 87.1 187.1 84.3 180.3 84.3 172.4 L 84.3 155.8 C 84.3 147.9 87.1 141.1 92.7 135.5 C 98.3 129.9 105.1 127.1 113 127.1 L 178.2 127.1 C 179.1 127.1 179.6 126.6 179.6 125.8 L 179.6 109.1 C 179.6 108.2 179.1 107.7 178.2 107.7 L 84.3 107.8 C 84.6 100.5 87.4 94.2 92.7 88.9 C 98.3 83.2 105.1 80.4 113 80.4 L 178.2 80.4 C 186.2 80.4 193 83.2 198.5 88.9 C 204.1 94.5 206.9 101.2 206.9 109.1 L 206.9 125.8 C 206.9 133.7 204.1 140.5 198.5 146.1 C 193 151.7 186.2 154.5 178.2 154.5 L 113 154.5 C 112 154.5 111.5 154.9 111.5 155.8 L 111.5 172.4 C 111.5 173.4 112 173.9 113 173.9 L 206.8 173.7 Z" fill="#000000" marker-start="none" marker-end="none"/>
     <path d="M 316.7 278.2 C 316.8 281.6 318.1 284.5 320.5 287 C 323.1 289.6 326.3 290.9 330 290.9 L 360.4 290.9 C 364 290.9 367.2 289.6 369.8 287 C 372.4 284.4 373.7 281.2 373.7 277.6 L 373.7 269.8 C 373.7 266.1 372.4 263 369.8 260.4 C 367.2 257.7 364 256.4 360.4 256.4 L 330 256.4 C 329.6 256.4 329.4 256.2 329.4 255.9 L 329.4 248.1 C 329.4 247.7 329.6 247.4 330 247.4 L 373.7 247.5 C 373.6 244.1 372.3 241.1 369.8 238.7 C 367.2 236.1 364 234.7 360.4 234.7 L 330 234.7 C 326.3 234.7 323.1 236.1 320.5 238.7 C 318 241.3 316.7 244.4 316.7 248.1 L 316.7 255.9 C 316.7 259.5 318 262.7 320.5 265.3 C 323.1 267.9 326.3 269.2 330 269.2 L 360.4 269.2 C 360.8 269.2 361 269.4 361 269.8 L 361 277.6 C 361 278 360.8 278.2 360.4 278.2 L 316.7 278.2 Z" fill="#000000" marker-start="none" marker-end="none"/>
     <path d="M 159.2 251.5 C 159.8 251.4 160.4 251.3 161.1 251.2 L 161.1 289.9 C 160.4 290 159.8 290 159.2 290.1 L 159.2 251.5 Z" fill="#000000" marker-start="none" marker-end="none"/>
     <path d="M 116.4 248.2 C 117.9 248.6 119.5 249 121 249.4 L 121 288.7 C 119.5 288.4 117.9 288.1 116.4 287.8 L 116.4 248.2 Z" fill="#000000" marker-start="none" marker-end="none"/>
     <path d="M 145 290.7 L 145 252.4 C 145.2 252.4 145.4 252.4 145.6 252.4 C 146.3 252.4 147 252.3 147.7 252.3 L 147.7 290.7 C 147 290.7 146.3 290.7 145.6 290.7 C 145.4 290.7 145.2 290.7 145 290.7 Z" fill="#000000" marker-start="none" marker-end="none"/>
     <path d="M 45.1 155.8 C 46.2 169 49.4 181.3 54.2 192.4 L 54.2 257.6 C 51.1 254.9 48 252.1 45.1 249.1 L 45.1 155.8 Z" fill="#000000" marker-start="none" marker-end="none"/>
     <path d="M 59.4 202.6 C 61.9 207 64.6 211.1 67.6 214.9 L 67.6 267.7 C 64.8 265.8 62.1 263.9 59.4 261.8 L 59.4 202.6 Z" fill="#000000" marker-start="none" marker-end="none"/>
     <path d="M 102.2 242.7 C 104 243.6 105.8 244.3 107.6 245.1 L 107.6 285.7 C 105.8 285.2 104 284.7 102.2 284.1 L 102.2 242.7 Z" fill="#000000" marker-start="none" marker-end="none"/>
     <path d="M 73.7 221.9 C 76 224.4 78.4 226.6 80.9 228.8 L 80.9 275.4 C 78.5 274.2 76.1 272.8 73.7 271.5 L 73.7 221.9 Z" fill="#000000" marker-start="none" marker-end="none"/>
     <path d="M 88 234.3 C 90 235.8 92.1 237.2 94.3 238.4 L 94.3 281.4 C 92.2 280.6 90 279.7 88 278.8 L 88 234.3 Z" fill="#000000" marker-start="none" marker-end="none"/>
     <path d="M 130.8 251.3 C 131.9 251.5 133.1 251.6 134.3 251.8 L 134.3 290.3 C 133.2 290.2 131.9 290.1 130.8 290 L 130.8 251.3 Z" fill="#000000" marker-start="none" marker-end="none"/>
     <path d="M 5.1 129.1 C 6.2 118.3 8.4 108 11.5 98.2 L 11.5 192.6 C 8.4 182.8 6.2 172.4 5.1 161.7 L 5.1 129.1 Z" fill="#000000" marker-start="none" marker-end="none"/>
     <path d="M 40 243.5 C 37.1 240.2 34.4 236.8 31.8 233.3 L 31.8 57.5 C 34.4 53.9 37.1 50.5 40 47.2 L 40 243.5 Z" fill="#000000" marker-start="none" marker-end="none"/>
     <path d="M 172.6 248.8 C 173.5 248.6 174.4 248.3 175.3 248 L 175.3 287.7 C 174.4 287.9 173.5 288.1 172.6 288.2 L 172.6 248.8 Z" fill="#000000" marker-start="none" marker-end="none"/>
     <path d="M 212.7 226.7 C 214.5 225 216.4 223.2 218.1 221.4 L 218.1 271.2 C 216.3 272.2 214.5 273.2 212.7 274.2 L 212.7 226.7 Z" fill="#000000" marker-start="none" marker-end="none"/>
     <path d="M 25.7 223.9 C 23.1 219.6 20.6 215.1 18.5 210.5 L 18.5 80.3 C 20.6 75.6 23.1 71.2 25.7 66.9 L 25.7 223.9 Z" fill="#000000" marker-start="none" marker-end="none"/>
     <path d="M 232.4 261.4 C 230.3 263 228.2 264.6 226 266.1 L 226 211.7 C 228.3 208.5 230.4 205.3 232.4 201.8 L 232.4 261.4 Z" fill="#000000" marker-start="none" marker-end="none"/>
     <path d="M 186 244.1 C 187.2 243.6 188.4 243 189.6 242.5 L 189.6 284 C 188.4 284.4 187.2 284.7 186 285.1 L 186 244.1 Z" fill="#000000" marker-start="none" marker-end="none"/>
     <path d="M 199.3 237.1 C 200.8 236.1 202.3 235 203.8 233.9 L 203.8 278.5 C 202.3 279.2 200.8 279.9 199.3 280.5 L 199.3 237.1 Z" fill="#000000" marker-start="none" marker-end="none"/>
     <path d="M 232.4 88.7 C 230.4 85.3 228.3 82 226 78.9 L 226 24.7 C 228.2 26.2 230.3 27.7 232.4 29.3 L 232.4 88.7 Z" fill="#000000" marker-start="none" marker-end="none"/>
     <path d="M 246.6 42.1 L 246.6 248.6 C 244.3 251 241.9 253.3 239.4 255.5 L 239.4 186.6 C 244 174 246.6 160.1 246.6 145.4 C 246.6 130.5 244 116.6 239.4 104 L 239.4 35.2 C 241.9 37.4 244.3 39.7 246.6 42.1 Z" fill="#000000" marker-start="none" marker-end="none"/>
     <path d="M 218.1 69.2 C 216.4 67.4 214.5 65.6 212.7 63.9 L 212.7 16.5 C 214.5 17.5 216.3 18.5 218.1 19.6 L 218.1 69.2 Z" fill="#000000" marker-start="none" marker-end="none"/>
     <path d="M 203.8 56.7 C 202.3 55.6 200.8 54.6 199.3 53.6 L 199.3 10.3 C 200.8 10.9 202.3 11.5 203.8 12.2 L 203.8 56.7 Z" fill="#000000" marker-start="none" marker-end="none"/>
     <path d="M 189.6 48.2 C 188.4 47.6 187.2 47.1 186 46.6 L 186 5.7 C 187.2 6 188.4 6.4 189.6 6.8 L 189.6 48.2 Z" fill="#000000" marker-start="none" marker-end="none"/>
     <path d="M 284.3 174.3 C 283.3 180 281.9 185.5 280.3 190.9 L 280.3 99.8 C 281.9 105.2 283.3 110.7 284.3 116.4 L 284.3 174.3 Z" fill="#000000" marker-start="none" marker-end="none"/>
     <path d="M 175.3 42.7 C 174.4 42.4 173.5 42.1 172.6 41.9 L 172.6 2.5 C 173.5 2.7 174.4 2.8 175.3 3 L 175.3 42.7 Z" fill="#000000" marker-start="none" marker-end="none"/>
     <path d="M 275.1 205.3 C 272.5 211.5 269.5 217.4 266.1 223.1 L 266.1 67.6 C 269.5 73.3 272.5 79.3 275.1 85.4 L 275.1 205.3 Z" fill="#000000" marker-start="none" marker-end="none"/>
     <path d="M 260.9 231.2 C 258.3 234.9 255.6 238.4 252.7 241.8 L 252.7 49 C 255.6 52.4 258.3 55.9 260.9 59.6 L 260.9 231.2 Z" fill="#000000" marker-start="none" marker-end="none"/>
     <path d="M 67.6 75.7 C 64.6 79.5 61.9 83.6 59.4 87.9 L 59.4 29 C 62.1 26.9 64.8 24.9 67.6 23.1 L 67.6 75.7 Z" fill="#000000" marker-start="none" marker-end="none"/>
     <path d="M 94.3 52.2 C 92.1 53.5 90 54.9 88 56.3 L 88 12 C 90 11.1 92.2 10.2 94.3 9.4 L 94.3 52.2 Z" fill="#000000" marker-start="none" marker-end="none"/>
     <path d="M 161.1 39.5 C 160.4 39.4 159.8 39.3 159.2 39.3 L 159.2 0.6 C 159.8 0.7 160.4 0.7 161.1 0.8 L 161.1 39.5 Z" fill="#000000" marker-start="none" marker-end="none"/>
     <path d="M 80.9 61.8 C 78.4 64 76 66.2 73.7 68.6 L 73.7 19.3 C 76.1 17.9 78.4 16.6 80.9 15.3 L 80.9 61.8 Z" fill="#000000" marker-start="none" marker-end="none"/>
     <path d="M 54.2 33.1 L 54.2 98.1 C 49.4 109.3 46.2 121.7 45.1 134.9 L 45.1 41.7 C 48 38.7 51.1 35.8 54.2 33.1 Z" fill="#000000" marker-start="none" marker-end="none"/>
     <path d="M 107.6 45.6 C 105.8 46.3 104 47.1 102.2 48 L 102.2 6.6 C 104 6 105.8 5.5 107.6 5 L 107.6 45.6 Z" fill="#000000" marker-start="none" marker-end="none"/>
     <path d="M 147.7 0.1 L 147.7 38.4 C 147 38.4 146.3 38.4 145.6 38.4 C 145.4 38.4 145.2 38.4 145 38.4 L 145 0 C 145.2 0 145.4 0 145.6 0 C 146.3 0 147 0 147.7 0.1 Z" fill="#000000" marker-start="none" marker-end="none"/>
     <path d="M 134.3 39 C 133.1 39.1 131.9 39.3 130.8 39.4 L 130.8 0.7 C 131.9 0.6 133.1 0.6 134.3 0.5 L 134.3 39 Z" fill="#000000" marker-start="none" marker-end="none"/>
     <path d="M 121 41.3 C 119.5 41.7 117.9 42.1 116.4 42.5 L 116.4 2.9 C 117.9 2.6 119.5 2.4 121 2.1 L 121 41.3 Z" fill="#000000" marker-start="none" marker-end="none"/>
    </g>
   </g>
  </g>
 </g>
</svg>